<svg width="19" height="16" viewBox="0 0 19 16" fill="none" xmlns="http://www.w3.org/2000/svg">
<path d="M6.88379 5.87231C8.328 5.87231 9.49877 4.70154 9.49877 3.25732C9.49877 1.8131 8.328 0.642334 6.88379 0.642334C5.43957 0.642334 4.2688 1.8131 4.2688 3.25732C4.2688 4.70154 5.43957 5.87231 6.88379 5.87231Z" stroke="#656565" stroke-linecap="round" stroke-linejoin="round"/>
<path d="M4.26873 3.25735H1" stroke="#656565" stroke-linecap="round" stroke-linejoin="round"/>
<path d="M9.49768 3.25735H17.9964" stroke="#656565" stroke-linecap="round" stroke-linejoin="round"/>
<path d="M12.1127 15.0248C10.6684 15.0248 9.49768 13.854 9.49768 12.4098C9.49768 10.9656 10.6684 9.7948 12.1127 9.7948C13.5569 9.7948 14.7277 10.9656 14.7277 12.4098C14.7277 13.854 13.5569 15.0248 12.1127 15.0248Z" stroke="#656565" stroke-linecap="round" stroke-linejoin="round"/>
<path d="M14.7297 12.4098H17.9985" stroke="#656565" stroke-linecap="round" stroke-linejoin="round"/>
<path d="M9.49871 12.4098H1" stroke="#656565" stroke-linecap="round" stroke-linejoin="round"/>
</svg>
