<svg width="78" height="29" viewBox="0 0 78 29" fill="none" xmlns="http://www.w3.org/2000/svg">
<rect x="11.1757" y="6.20874" width="1.36585" height="16" transform="rotate(-45 11.1757 6.20874)" fill="#FFF5D9"/>
<rect x="6.07077" y="23.4552" width="1.36585" height="24.5854" transform="rotate(-135 6.07077 23.4552)" fill="url(#paint0_linear_0_146)"/>
<rect x="9.31567" y="12.0654" width="1.36585" height="16" transform="rotate(-90 9.31567 12.0654)" fill="#FFF5D9"/>
<rect x="16.5545" y="3.31348" width="1.36585" height="16" fill="#FFF5D9"/>
<path d="M38.276 16C37.4481 16 36.7092 15.8266 36.0594 15.4799C35.4201 15.1332 34.917 14.6528 34.5502 14.0386C34.1834 13.4244 34 12.7261 34 11.9435C34 11.151 34.1782 10.4477 34.5345 9.83354C34.9013 9.20947 35.4096 8.72408 36.0594 8.37737C36.7092 8.03067 37.4481 7.85731 38.276 7.85731C39.3031 7.85731 40.1834 8.11982 40.9171 8.64483C41.6507 9.16984 42.138 9.88802 42.3791 10.7994H41.0428C40.8332 10.2446 40.4874 9.81373 40.0053 9.50664C39.5232 9.19956 38.9572 9.04602 38.3074 9.04602C37.731 9.04602 37.2175 9.16984 36.7668 9.41749C36.3266 9.65523 35.9808 9.99699 35.7293 10.4428C35.4882 10.8786 35.3677 11.3789 35.3677 11.9435C35.3677 12.5081 35.4882 13.0084 35.7293 13.4442C35.9808 13.8801 36.3266 14.2169 36.7668 14.4546C37.2175 14.6924 37.731 14.8113 38.3074 14.8113C38.9782 14.8113 39.5494 14.6577 40.021 14.3506C40.5031 14.0435 40.8437 13.6077 41.0428 13.043H42.4105C42.18 13.9544 41.6926 14.6775 40.9485 15.2124C40.2044 15.7375 39.3136 16 38.276 16Z" fill="#FFF5D9"/>
<path d="M46.4043 16C45.5763 16 44.8322 15.8266 44.172 15.4799C43.5117 15.1233 42.9929 14.6379 42.6156 14.0237C42.2488 13.4096 42.0654 12.7112 42.0654 11.9286C42.0654 11.1461 42.2488 10.4477 42.6156 9.83354C42.9929 9.21937 43.5117 8.73894 44.172 8.39223C44.8322 8.03562 45.5763 7.85731 46.4043 7.85731C47.2427 7.85731 47.9921 8.03067 48.6523 8.37737C49.3126 8.72408 49.8261 9.20947 50.193 9.83354C50.5598 10.4477 50.7432 11.1461 50.7432 11.9286C50.7432 12.7112 50.5598 13.4145 50.193 14.0386C49.8261 14.6528 49.3126 15.1332 48.6523 15.4799C47.9921 15.8266 47.2427 16 46.4043 16ZM43.4331 11.9286C43.4331 12.4834 43.5589 12.9787 43.8104 13.4145C44.0724 13.8504 44.4287 14.1921 44.8794 14.4398C45.3301 14.6874 45.8383 14.8113 46.4043 14.8113C46.9702 14.8113 47.4785 14.6874 47.9292 14.4398C48.3903 14.1921 48.7467 13.8504 48.9982 13.4145C49.2602 12.9787 49.3912 12.4834 49.3912 11.9286C49.3912 11.3739 49.2602 10.8786 48.9982 10.4428C48.7467 10.0069 48.3903 9.66514 47.9292 9.41749C47.4785 9.16984 46.9702 9.04602 46.4043 9.04602C45.8383 9.04602 45.3301 9.16984 44.8794 9.41749C44.4287 9.66514 44.0724 10.0069 43.8104 10.4428C43.5589 10.8786 43.4331 11.3739 43.4331 11.9286Z" fill="#FFF5D9"/>
<path d="M51.1895 7.99104H52.5257V9.0906C52.8506 8.69436 53.2437 8.39223 53.7048 8.18421C54.1659 7.97618 54.6637 7.87217 55.1982 7.87217C55.869 7.87217 56.4454 8.00095 56.9275 8.2585C57.4096 8.51606 57.7869 8.89248 58.0594 9.38777C58.4262 8.90238 58.8769 8.53091 59.4114 8.27336C59.9564 8.0059 60.5485 7.87217 61.1878 7.87217C62.2568 7.87217 63.0743 8.18421 63.6402 8.80828C64.2166 9.43235 64.5048 10.3288 64.5048 11.4977V15.8662H63.1686V11.5126C63.1686 10.6904 62.9852 10.0713 62.6184 9.65523C62.262 9.22928 61.7328 9.0163 61.0306 9.0163C60.2655 9.0163 59.6524 9.24414 59.1913 9.69981C58.7406 10.1456 58.5153 10.7449 58.5153 11.4977V15.8662H57.179V11.5126C57.179 10.6904 56.9956 10.0713 56.6288 9.65523C56.2725 9.22928 55.7432 9.0163 55.041 9.0163C54.276 9.0163 53.6629 9.24414 53.2017 9.69981C52.7511 10.1456 52.5257 10.7449 52.5257 11.4977V15.8662H51.1895V7.99104Z" fill="#FFF5D9"/>
<path d="M69.089 16C68.2715 16 67.5379 15.8266 66.8881 15.4799C66.2383 15.1332 65.73 14.6528 65.3632 14.0386C64.9964 13.4145 64.813 12.7112 64.813 11.9286C64.813 11.1461 64.9964 10.4477 65.3632 9.83354C65.73 9.20947 66.2383 8.72408 66.8881 8.37737C67.5379 8.03067 68.2715 7.85731 69.089 7.85731C69.9589 7.85731 70.7239 8.04553 71.3842 8.42195C72.055 8.78847 72.5685 9.31348 72.9248 9.99699C73.2812 10.6805 73.4331 11.468 73.3807 12.3595H66.2121C66.296 13.0926 66.5999 13.6869 67.1239 14.1426C67.6479 14.5884 68.303 14.8113 69.089 14.8113C69.6759 14.8113 70.1947 14.6973 70.6453 14.4695C71.1065 14.2417 71.4523 13.9197 71.6829 13.5037H73.1292C72.8357 14.2763 72.3274 14.8855 71.6043 15.3313C70.8916 15.7771 70.0532 16 69.089 16ZM71.9816 11.2748C71.8349 10.6211 71.4995 10.0861 70.9755 9.67009C70.4514 9.25404 69.8226 9.04602 69.089 9.04602C68.3554 9.04602 67.7318 9.24909 67.2182 9.65523C66.7047 10.0614 66.3798 10.6012 66.2436 11.2748H71.9816Z" fill="#FFF5D9"/>
<path d="M77.041 15.9108C76.0873 15.9108 75.3851 15.7077 74.9345 15.3016C74.4838 14.8955 74.2585 14.2615 74.2585 13.3997V9.04602H72.5135V7.99104H74.2585V6.13369L75.5947 5.99996V7.99104H77.89V9.04602H75.5947V13.2511C75.5947 13.7761 75.7153 14.1575 75.9563 14.3952C76.2079 14.623 76.6218 14.737 77.1982 14.737C77.4498 14.737 77.717 14.7221 78 14.6924V15.8662C77.6751 15.8959 77.3555 15.9108 77.041 15.9108Z" fill="#FFF5D9"/>
<defs>
<linearGradient id="paint0_linear_0_146" x1="6.85125" y1="24.3333" x2="6.85125" y2="39.943" gradientUnits="userSpaceOnUse">
<stop stop-color="#FFF5D9" stop-opacity="0"/>
<stop offset="1" stop-color="#FFF5D9"/>
</linearGradient>
</defs>
</svg>
