<svg width="16" height="16" viewBox="0 0 16 16" fill="none" xmlns="http://www.w3.org/2000/svg">
<path d="M9.75471 6.19686C10.349 6.19686 10.8308 5.71508 10.8308 5.12079C10.8308 4.5265 10.349 4.04473 9.75471 4.04473C9.16043 4.04473 8.67865 4.5265 8.67865 5.12079C8.67865 5.71508 9.16043 6.19686 9.75471 6.19686Z" stroke="#555555" stroke-linecap="round" stroke-linejoin="round"/>
<path d="M5.44929 11.5771C5.74643 11.5771 5.98732 11.3362 5.98732 11.0391C5.98732 10.7419 5.74643 10.501 5.44929 10.501C5.15214 10.501 4.91125 10.7419 4.91125 11.0391C4.91125 11.3362 5.15214 11.5771 5.44929 11.5771Z" stroke="#555555" stroke-linecap="round" stroke-linejoin="round"/>
<path d="M5.45137 7.81093C6.04566 7.81093 6.52743 7.32916 6.52743 6.73487C6.52743 6.14058 6.04566 5.65881 5.45137 5.65881C4.85708 5.65881 4.37531 6.14058 4.37531 6.73487C4.37531 7.32916 4.85708 7.81093 5.45137 7.81093Z" stroke="#555555" stroke-linecap="round" stroke-linejoin="round"/>
<path d="M10.8521 14.0305C10.8401 13.8218 10.7676 13.6211 10.6434 13.4529C10.5192 13.2848 10.3487 13.1564 10.1527 13.0836C9.666 12.9236 9.25232 12.5953 8.98605 12.1576C8.71978 11.7199 8.61838 11.2016 8.70009 10.6959C8.78178 10.1901 9.04122 9.73008 9.43176 9.3985C9.82229 9.06693 10.3183 8.88553 10.8306 8.88694H12.8429C13.188 8.88791 13.5283 8.80585 13.835 8.6477C14.1418 8.48955 14.4061 8.25994 14.6055 7.97825C14.8048 7.69655 14.9335 7.37103 14.9808 7.02915C15.0279 6.68726 14.9922 6.33904 14.8766 6.01385C14.4487 4.8054 13.6967 3.73781 12.7031 2.92775C11.7094 2.11768 10.5123 1.59629 9.24237 1.42053C7.97246 1.24478 6.67869 1.42143 5.50238 1.93118C4.32607 2.44093 3.31249 3.26416 2.57237 4.31096C1.83226 5.35774 1.39408 6.58781 1.3057 7.86677C1.21733 9.14573 1.48217 10.4244 2.07127 11.563C2.66039 12.7016 3.55111 13.6565 4.64612 14.3231C5.74115 14.9898 6.99833 15.3428 8.28034 15.3433C8.91346 15.3451 9.5437 15.2582 10.1527 15.0851C10.3764 15.0224 10.5701 14.8814 10.6985 14.6878C10.8269 14.4942 10.8814 14.261 10.8521 14.0305Z" stroke="#555555" stroke-linecap="round" stroke-linejoin="round"/>
</svg>
